<?xml version="1.0" ?><!DOCTYPE svg  PUBLIC '-//W3C//DTD SVG 1.1//EN'  'http://www.w3.org/Graphics/SVG/1.1/DTD/svg11.dtd'><svg id="Lager_1" style="enable-background:new -169 292.9 256 256;" version="1.1" viewBox="-169 292.9 256 256" xml:space="preserve" xmlns="http://www.w3.org/2000/svg" xmlns:xlink="http://www.w3.org/1999/xlink"><style type="text/css">
	.st0{fill:#9889BE;}
	.st1{fill:#CCB09A;}
	.st2{opacity:0.1;enable-background:new    ;}
	.st3{fill:#E5C8B1;}
	.st4{fill:#EFBF8F;}
</style><g><g><g><path class="st0" d="M-147.9,484.7l105.1,60.7c1.1,0.6,2.5,0.6,3.6,0l105.1-60.7c1.1-0.6,1.8-1.8,1.8-3.1V360.2     c0-1.3-0.7-2.5-1.8-3.1l-105.1-60.7c-1.1-0.6-2.5-0.6-3.6,0l-105.1,60.7c-1.1,0.6-1.8,1.8-1.8,3.1v121.4     C-149.7,482.9-149,484.1-147.9,484.7z"/></g></g><g><path class="st1" d="M-9,495.5c6.8,0.3,17.3,0.8,20.6,1.8c6.9,1.9,11.8,5.5,15.4,9.7l-66.2,38.2c-1.1,0.6-2.5,0.6-3.6,0    l-66.7-38.5c3.6-4.1,8.4-7.5,15.2-9.4c3.3-0.9,14-1.5,20.8-1.8L-9,495.5L-9,495.5z"/><g><path d="M-2.2,496.1c-1.4-1.7-3-2.9-4.7-3.7c-1.1-0.5-2.6-0.8-4.3-1.1l0.2-0.5h-59.9l0.2,0.5c-1.8,0.3-3.2,0.7-4.4,1.1     c-1.7,0.7-3.3,2-4.7,3.6c-4.7,5.5-7.6,15.3-9.6,22.5l46.6,26.9c1.1,0.6,2.5,0.6,3.6,0l46.6-26.9C5.4,511.3,2.5,501.6-2.2,496.1z"/><path class="st1" d="M-35.1,528.5l21.8-34.2c-1.4-0.9-2.5-2.2-3.2-3.7c-1.8-3.9-3.4-8.2-3.4-12.6c0-19.3,29.5-34.9-20-35.4l0,0     c-0.4,0-0.8,0-1.1,0c-0.4,0-0.7,0-1.1,0l0,0c-49.5,0.5-20,16.1-20,35.4c0,4.4-1.6,8.7-3.4,12.6c-0.6,1.3-1.5,2.4-2.6,3.2     l22.1,34.7C-43,533-38,533-35.1,528.5z"/></g><path class="st2" d="M-66.7,462.7c2,4,4,8.5,4.5,13.1c7,5.6,14.4,12.7,21.3,12.7s14.2-6.9,21.1-12.4c0.4-4.6,2.3-8.9,4.2-12.8    C-23.7,470.7-32.7,475-41,475S-58.5,470.4-66.7,462.7z"/><path class="st3" d="M6.8,409.3c0,35.9-26.5,67.9-47.8,67.6c-21.2-0.3-47.5-33.1-47.8-68.1C-89.2,372.9-71.7,351-41,351    S6.8,373.4,6.8,409.3z"/><path class="st4" d="M-46.1,342.1c-39.2,2.6-58.3,51.1-54.8,68.8c2.4,12.4,5.2,25.1,11.7,37.1c0.2,0.4,0.9,0.2,0.8-0.3    c-0.2-4.2-0.3-8-0.2-11.4c0-0.5,0.8-0.6,0.9-0.1c2.2,9.4,5.6,19.1,10.7,26.3c0.3,0.4,0.9,0.1,0.8-0.4c-2-7.6-7.9-32.8-5.4-55    c0-0.1,0.1-0.2,0.1-0.2c6.1-7.1,2-15.3,0.5-18.5c-0.2-0.3,0.1-0.7,0.5-0.6c10.2,2.4,51.7,13.8,64.3,39.2c0.2,0.4,0.7,0.3,0.8-0.1    c0.4-1.7,1-4.9,1.2-9.1c0-0.4,0.6-0.6,0.8-0.2c11.7,17.8,10.2,38,9.7,44.7c0,0.5,0.6,0.7,0.9,0.3c3.2-5.8,16.1-24.4,20.5-52.3    C23.2,376.2-6.8,339.5-46.1,342.1z"/></g></g></svg>